<?xml version="1.0" encoding="iso-8859-1"?>
<!-- Generator: Adobe Illustrator 18.1.1, SVG Export Plug-In . SVG Version: 6.00 Build 0)  -->
<svg version="1.1" id="Capa_1" xmlns="http://www.w3.org/2000/svg" xmlns:xlink="http://www.w3.org/1999/xlink" x="0px" y="0px"
	 viewBox="0 0 581.176 581.176" style="enable-background:new 0 0 581.176 581.176;" xml:space="preserve">
<g>
	<g>
		<path d="M565.727,409.221c0.508-4.988,0.484-10.098-0.048-15.256l15.425-7.701c-2.494-15.159-8.403-28.962-16.854-40.707
			l-16.321,5.449c-3.269-3.947-6.853-7.555-10.776-10.8l5.473-16.346c-11.938-8.597-25.814-14.481-40.707-16.878l-7.701,15.425
			c-5.013-0.484-10.098-0.484-15.256,0.024l-7.676-15.377c-15.304,2.47-29.18,8.475-40.949,17.024l5.449,16.321
			c-3.778,3.148-7.24,6.611-10.364,10.389l-16.37-5.449c-8.669,11.963-14.65,25.911-17.072,40.9l15.425,7.701
			c-0.484,4.988-0.484,10.098,0.024,15.256l-15.401,7.701c2.47,15.183,8.427,28.962,16.878,40.707l16.297-5.449
			c3.269,3.947,6.853,7.531,10.8,10.776l-5.473,16.346c11.914,8.572,25.79,14.481,40.707,16.878l7.701-15.425
			c4.988,0.484,10.074,0.484,15.256-0.024l7.676,15.377c15.28-2.47,29.156-8.476,40.924-17.024l-5.424-16.321
			c3.753-3.124,7.24-6.611,10.364-10.364l16.37,5.449c8.669-11.963,14.626-25.911,17.072-40.9L565.727,409.221z M509.135,424.21
			l-22.569,9.371l-22.545-9.371l-9.347-22.642l9.347-22.642l22.545-9.396l22.569,9.396l9.347,22.642L509.135,424.21z"/>
		<g>
			<path d="M368.078,420.772l-2.833-17.581l3.245-1.622l-3.293-1.647l2.833-17.556c2.954-18.331,10.364-36.057,21.382-51.265
				l10.437-14.36l2.785,0.944l-0.92-2.785l14.36-10.413c15.135-10.994,32.885-18.355,51.361-21.334l17.556-2.833l1.574,3.196
				l1.622-3.293l17.581,2.833c18.234,2.954,35.863,10.243,50.974,21.14l14.481,10.413l-1.138,3.439l3.39-1.138l7.337,10.146
				c0.024-1.235,0.363-2.47,0.363-3.778c0-58.384-47.269-105.823-105.677-105.823c-0.145,0-0.218,0-0.315,0
				c-4.674-73.93-66.133-132.436-141.226-132.436c-69.305,0-126.963,49.812-139.216,115.533c-1.526-0.048-3.196-0.121-4.746-0.121
				c-51.652,0-95.216,34.217-109.431,81.171c-2.228-0.194-4.456-0.315-6.659-0.315C33.127,281.314,0,314.344,0,355.171
				s33.079,73.882,73.809,73.882c0.412,0,177.259,0,296.109,0C369.265,426.317,368.539,423.605,368.078,420.772z"/>
			<polygon points="490.586,405.685 492.281,401.569 490.586,397.452 486.59,395.781 482.619,397.452 480.899,401.569 
				482.619,405.685 486.59,407.356 			"/>
		</g>
	</g>
</g>
<g>
</g>
<g>
</g>
<g>
</g>
<g>
</g>
<g>
</g>
<g>
</g>
<g>
</g>
<g>
</g>
<g>
</g>
<g>
</g>
<g>
</g>
<g>
</g>
<g>
</g>
<g>
</g>
<g>
</g>
</svg>
